<svg xmlns="http://www.w3.org/2000/svg" viewBox="0 0 51.57 20.01"><defs><style>.cls-1{fill:#b58f68;}.cls-2{fill:#b79169;}</style></defs><g id="partner_logos" data-name="partner logos"><path class="cls-1" d="M42.4,3H36.22c-1,0-1.12.1-1.12,1.13,0,3.94,0,7.89,0,11.84,0,.67.1,1,.89,1,3.56,0,7.12,0,10.67,0a11.5,11.5,0,0,1,2,.09c.64.12.94-.18.94-.85,0-4.1,0-8.19,0-12.28,0-.72-.33-.94-1-.93C46.57,3,44.49,3,42.4,3Zm.78,12.2c-2.73.1-4.85-1.22-5.61-3.57a5,5,0,0,1,2.62-6.12,6.45,6.45,0,0,1,5-.23c1.36.44,1.38.37,1.46,1.7,0,.18,0,.35-.13.47a.44.44,0,0,1-.54,0,5,5,0,0,0-2.87-.85,3.6,3.6,0,0,0-3.58,1.87c-.78,1.76-.35,4.18,2,4.86a5.51,5.51,0,0,0,4.58-.62c.18-.11.34-.32.56-.06a1.8,1.8,0,0,1-.39,1.88A6.14,6.14,0,0,1,43.18,15.17Z"/><path class="cls-1" d="M25.76,16.94H32c1,0,1,0,1-1V4.23c0-1.13,0-1.08-1.08-1.15-4.07-.24-8.14,0-12.2-.1-1.18,0-1.25.06-1.25,1.24V15.9c0,1,0,1,1.06,1ZM22.3,10.09c0-1.44,0-2.89,0-4.33,0-.47.15-.74.66-.74.95,0,1.89,0,2.83,0a2.86,2.86,0,0,1,2.63,1.54A2.19,2.19,0,0,1,28,9.34c-.28.27-.18.51.16.68a2.48,2.48,0,0,1,1.22,1.31,2.61,2.61,0,0,1-2,3.54A19.5,19.5,0,0,1,23.1,15c-.59,0-.82-.23-.8-.83C22.32,12.83,22.3,11.46,22.3,10.09Z"/><path class="cls-1" d="M9.21,16.94c2.11,0,4.22,0,6.33,0,.67,0,.95-.2.94-.92,0-3,0-6,0-9a16.4,16.4,0,0,1,0-3.21c.09-.53-.2-.72-.72-.75C11.56,2.86,7.37,3,3.18,3c-1.24,0-1.24,0-1.24,1.32V16c0,.91.06,1,1,1ZM5.72,10.09c0-1.44,0-2.88,0-4.32,0-.47.14-.75.66-.75,1,0,2,0,3,0a2.86,2.86,0,0,1,2.59,1.72,2.33,2.33,0,0,1-.59,2.62c-.27.31-.15.4.18.55A2.58,2.58,0,0,1,13,12.49,2.86,2.86,0,0,1,10.07,15c-1.19,0-2.37,0-3.55,0-.6,0-.82-.23-.81-.83C5.74,12.83,5.72,11.46,5.72,10.09Z"/><path class="cls-1" d="M25.66,13.41c.37,0,.85.13,1.27-.12a1.31,1.31,0,0,0-.5-2.5,13.49,13.49,0,0,0-1.8,0,.38.38,0,0,0-.22,0c-.73.56-.24,1.35-.34,2-.07.43.24.59.64.58Z"/><path class="cls-2" d="M24.05,7.83c0,1.28,0,1.32,1,1.32s1.93-.59,1.93-1.29-.87-1.35-2.32-1.27C23.71,6.64,24.19,7.44,24.05,7.83Z"/><path class="cls-2" d="M8.93,10.76c-1.47,0-1.47,0-1.47,1.41,0,.22,0,.44,0,.66,0,.4.16.59.56.58.6,0,1.21,0,1.81,0a1.16,1.16,0,0,0,1.25-1,1.29,1.29,0,0,0-1-1.57A4.28,4.28,0,0,0,8.93,10.76Z"/><path class="cls-1" d="M7.47,7.91c0,1.22,0,1.24,1,1.23s1.86-.63,1.84-1.35-.73-1.15-1.8-1.15S7.47,6.64,7.47,7.91Z"/></g></svg>