<svg xmlns="http://www.w3.org/2000/svg" viewBox="0 0 89.5 22.44"><defs><style>.cls-1{fill:#b58f68;}.cls-2{fill:#b79169;}</style></defs><g id="partner_logos" data-name="partner logos"><path class="cls-1" d="M62.09,10.31c.46,1,.9,2,1.37,2.95.17.36.15,1,.6,1s.5-.62.69-1c.54-1,.92-2.19,1.54-3.23.3.19.18.42.14.62a29.79,29.79,0,0,0,0,3c0,.4.21.75.75.61a2.28,2.28,0,0,1,.58-.05c1.46,0,1.39,0,1.39-1.41,0-2.52,0-5,0-7.57,0-1,0-1-1-1h-.36c-1.31,0-1.25,0-1.77,1.23S64.8,7.8,64.34,9c0,.12-.11.24-.25.23s-.18-.13-.23-.24C63.25,7.62,62.61,6.22,62,4.81a.8.8,0,0,0-.8-.61H59.76c-.51,0-.68.24-.68.72q0,4.28,0,8.53c0,.53.2.78.73.75h.29c1.86,0,1.79.37,1.69-1.94,0-.64.07-1.25.08-1.88Z"/><path class="cls-1" d="M74.5,9.29c0,1.39,0,2.79,0,4.18,0,.62.19.89.84.87a40.53,40.53,0,0,0,4.4-.23,4.14,4.14,0,0,0,3.43-3.65,6.82,6.82,0,0,0-.67-4.41,3.7,3.7,0,0,0-3.14-1.82c-1.38-.08-2.76,0-4.14,0-.54,0-.72.24-.71.76C74.51,6.4,74.5,7.84,74.5,9.29Zm3.72,2.44a.65.65,0,0,1-.74-.66c-.07-.63.39-1.19.17-1.85-.14-.45-.12-1-.22-1.43a1.36,1.36,0,0,1,.37-1.28c.35-.33.67.07,1,.18a2.12,2.12,0,0,1,1.09,1.22,8.1,8.1,0,0,1,.39,1.77.67.67,0,0,1-.48.9c-.22.09-.55.14-.57.39C79.15,11.66,78.56,11.54,78.22,11.73Z"/><path class="cls-1" d="M40.05,12v.76c.27.37-.11,1,.32,1.22s.9,0,1.36.09c.67.08,1-.16.92-.89,0-.56,0-1.12,0-1.68,0-.38.11-.7.52-.78a.79.79,0,0,1,1,.39,4.6,4.6,0,0,1,.54,1.34c0,.1,0,.2,0,.3A.34.34,0,0,1,45,13c0,.15,0,.3,0,.44a.34.34,0,0,1,.25.28l0,.16a9.06,9.06,0,0,0,2.6.14c.45,0,.32-.31.28-.57a1.24,1.24,0,0,1-.32-.74A1,1,0,0,1,47.3,12v-.29a.49.49,0,0,1-.28-.44c-.06-.15-.13-.29-.19-.44-.28-.48,0-.8.74-1l0-.15a1,1,0,0,1,.56-.73l0-.57a6.53,6.53,0,0,0-.29-2.67,1.35,1.35,0,0,0-1.3-1,4.82,4.82,0,0,0-2.06-.29q-1.53,0-3.06,0c-.57,0-1.1,0-1.4.59,0,.2,0,.4,0,.6a.43.43,0,0,1,0,.56v.62a.18.18,0,0,1,0,.27V7.3a5.29,5.29,0,0,1,0,2.47v1.5A.62.62,0,0,1,40.05,12ZM44,6.39a4.72,4.72,0,0,1,.92.13,1,1,0,0,1,.5,1.71A2.62,2.62,0,0,1,43,8.66a.36.36,0,0,1-.15-.15,3.34,3.34,0,0,1,0-1.8C43,6.23,43.53,6.48,44,6.39Z"/><path class="cls-1" d="M30.43,5.67A4.23,4.23,0,0,0,26.6,4.19c-1.08.07-2.17,0-3.26,0-.57,0-.77.22-.77.78,0,2.82,0,5.63,0,8.44a.78.78,0,0,0,.87.91h.08c2.25,0,1.93.25,1.95-1.85v-.37c0-1,0-.95,1-1A7.56,7.56,0,0,0,29,10.63a3.38,3.38,0,0,0,1.61-4.34,1.54,1.54,0,0,1-.19-.62ZM26.54,8.75c-1.07,0-1.2-.11-1.2-1.06,0-1.23-.06-1.05,1.39-1.26a1.19,1.19,0,0,1,1.29,1A1.24,1.24,0,0,1,26.54,8.75Z"/><path class="cls-1" d="M55.73,6.39l0-.58c-.33-.14-.33-.46-.4-.75s-.07-.62-.44-.72H52.24a4.94,4.94,0,0,1-.72,2c0,.14,0,.28,0,.42-.37.67-.36,1.52-1,2.08a2.81,2.81,0,0,1-.3,1,5.69,5.69,0,0,1-.88,2.48c0,.37-.38.64-.3,1-.15.45-.11.71.47.6.87-.15,2,.44,2.43-.89v-.29a.68.68,0,0,1,.78-.59c.43,0,.86,0,1.29,0s.84-.14,1.13.29l0,.3c.45.26.37.72.41,1.14l0,0h3v-.29a1.75,1.75,0,0,1-.68-1.49,2.35,2.35,0,0,1-.2-.87.34.34,0,0,1-.25-.28l0-.45c-.31-.16-.47-.37-.28-.72-.06-.16-.12-.31-.17-.46-.31-.15-.31-.46-.39-.74s0-.39,0-.59C56,7.71,56,7,55.73,6.39Zm-2.16,3.84c-.23-.05-.68.08-.63-.34a12.83,12.83,0,0,1,.44-1.83c0-.15.12-.28.3-.26a.29.29,0,0,1,.26.3,6.77,6.77,0,0,0,.33,1.27C54.45,10.1,54.35,10.23,53.57,10.23Z"/><path class="cls-1" d="M36.82,4.34l-.14.15a.33.33,0,0,1-.28.29c-.06.31-.35.54-.3.89s-.08.6-.42.73l0,.15c-.09.28-.2.54-.27.82s-.06.71-.46.69-.42-.43-.44-.77a.77.77,0,0,0,0-.15c-.22-.06-.26-.24-.27-.44l0-.3c-.55-.06-.53-.48-.55-.88,0,0,0-.1,0-.15a.33.33,0,0,1-.27-.31.53.53,0,0,0,0-.13c-.23-.06-.29-.23-.28-.45H30.89c-.31,0-.59,0-.61.43l.15.16a1,1,0,0,1,.58,1c.07.41.44.65.58,1,.24.06.29.24.28.45,0,0,0,.09,0,.14A3.41,3.41,0,0,1,33,9.64s0,.1,0,.15c.44.1.56.41.56.82,0,.83,0,1.65,0,2.48s.09.95.88,1h1.6V10.83a1.4,1.4,0,0,1,.71-1.34.59.59,0,0,0,0-.13.34.34,0,0,1,.26-.31c.81-1.2,1.4-2.53,2.24-3.7a1.08,1.08,0,0,0,.11-.41c.15-.45,0-.62-.47-.6C38.25,4.36,37.54,4.34,36.82,4.34Z"/><path class="cls-1" d="M70.37,9.34c0,1.47,0,2.94,0,4.4,0,.3.13.58.37.52.67-.16,1.34.16,2,0,.39-.11.58-.28.58-.7,0-2.89,0-5.77,0-8.66,0-.45-.18-.68-.64-.68-2.67,0-2.22-.36-2.26,2.06,0,1,0,2.05,0,3.08Z"/><path class="cls-1" d="M20.24,11.45a7.3,7.3,0,0,0-5.58-7.18c-.28-.08-.61-.17-.81.09s.07.49.2.71l4.78,8.28a2.13,2.13,0,0,0,.16.25c.13.19.21.51.49.47s.29-.37.36-.58A4.94,4.94,0,0,0,20.24,11.45Z"/><path class="cls-1" d="M6.3,11.31a4.7,4.7,0,0,0,.28,2.18c.08.22.15.44.4.47s.34-.21.45-.4L12.32,5c.11-.2.39-.38.22-.64a.62.62,0,0,0-.74-.15A7.29,7.29,0,0,0,6.59,9,5.47,5.47,0,0,0,6.3,11.31Z"/><path class="cls-1" d="M13.19,15.39H8.48c-.23,0-.53-.07-.63.22s.16.39.3.54a7,7,0,0,0,10.07,0c.14-.15.39-.28.31-.54s-.39-.23-.63-.23Z"/><path class="cls-2" d="M27.84,16.17c-.33,0-.45-.25-.58-.44a.58.58,0,0,0-.74-.29c-.33.11-.3.41-.3.67,0,.42,0,.84,0,1.25s-.14.93.51.92.44-.5.4-.93c.47.12.55.55.83.75a.59.59,0,0,0,.6.14.49.49,0,0,0,.25-.49q0-.73,0-1.47c0-.38.1-.85-.49-.88S27.89,15.85,27.84,16.17Z"/><path class="cls-2" d="M49,16.79c0-.29,0-.59,0-.88a.46.46,0,0,0-.43-.5c-.27,0-.39.12-.42.38-.07.54-.26.43-.51.1s-.42-.59-.83-.45-.41.55-.41.92,0,.83,0,1.25a.58.58,0,0,0,.4.63c.33.08.48-.15.57-.43s.26-.37.48-.08.46.71.93.48.26-.62.23-1a3.2,3.2,0,0,1,0-.44Z"/><path class="cls-2" d="M71.51,17.36c.37.17.45.48.64.69a.55.55,0,0,0,.58.21A.43.43,0,0,0,73,17.8c0-.64,0-1.28,0-1.91a.44.44,0,0,0-.44-.49c-.28,0-.38.15-.41.4-.07.55-.3.42-.53.11s-.44-.58-.82-.46-.4.57-.4.94,0,.78,0,1.18,0,.63.36.7.5-.23.6-.52C71.43,17.64,71.46,17.53,71.51,17.36Z"/><path class="cls-2" d="M42.51,17.66c.19.23.29.47.54.55a.56.56,0,0,0,.56,0,.35.35,0,0,0,0-.52c-.21-.31-.08-.58,0-.89a.93.93,0,0,0-.85-1.4h-.36c-1.12,0-1.15,0-1.15,1.12,0,.3,0,.59,0,.88s0,.74.49.86S42.27,17.89,42.51,17.66Zm.37-1.28a.24.24,0,0,1-.25.28c-.19,0-.34-.08-.35-.29s.09-.22.22-.23S42.84,16.16,42.88,16.38Z"/><path class="cls-2" d="M37.58,16.22l.38-.11c.26-.05.68.12.69-.32s-.46-.39-.78-.4c-1.47,0-1.47,0-1.47,1.38,0,1.63-.28,1.57,1.76,1.53.29,0,.56-.12.57-.43s-.33-.25-.54-.29-.49.08-.55-.21.22-.2.35-.29C38.38,16.81,38.32,16.65,37.58,16.22Z"/><path class="cls-2" d="M76.18,18.3c.51-.66,1.07-.33,1.72,0,.39.18.59-.28.46-.66-.21-.62-.47-1.22-.74-1.82-.1-.24-.27-.5-.58-.46a.74.74,0,0,0-.61.47c-.24.61-.48,1.23-.7,1.85C75.62,18,75.69,18.22,76.18,18.3Z"/><path class="cls-2" d="M52.12,18.29a.53.53,0,0,0,.42-.18.57.57,0,0,1,.89,0,.62.62,0,0,0,.8.1c.28-.21.1-.5,0-.74-.18-.53-.38-1.05-.57-1.57a.7.7,0,0,0-.64-.5c-.38,0-.5.21-.61.5-.24.61-.5,1.21-.71,1.83C51.6,18.07,51.8,18.27,52.12,18.29Z"/><path class="cls-2" d="M66.49,15.38c-.91,0-1.33.58-1.3,1.71a1.21,1.21,0,0,0,1.32,1.21,1.44,1.44,0,0,0,1.4-1.6A1.36,1.36,0,0,0,66.49,15.38Zm.57,1.53c0,.32-.16.62-.54.62s-.46-.41-.46-.75,0-.64.45-.62S67.05,16.49,67.06,16.91Z"/><path class="cls-2" d="M32.61,15.38c-.17,0-.34,0-.51,0s-.62-.06-.73.3.23.48.48.59a.57.57,0,0,1,.32.6c0,.32,0,.63,0,.95a.41.41,0,0,0,.38.45.44.44,0,0,0,.49-.34,1.59,1.59,0,0,0,.1-.64c0-.52-.11-1,.53-1.22a.33.33,0,0,0,.16-.38.37.37,0,0,0-.38-.29h-.86Z"/><path class="cls-2" d="M81,16.87v.07c0,1.37.33,1.63,1.7,1.36.24-.05.42-.14.43-.41a.37.37,0,0,0-.39-.43c-.7,0-.77-.43-.74-1a4.41,4.41,0,0,0,0-.73.42.42,0,0,0-.47-.36c-.25,0-.44.11-.46.37s0,.73,0,1.1Z"/><path class="cls-2" d="M36.82,4.34c.72,0,1.43,0,2.15,0,.46,0,.62.15.47.6.21,0,.41-.46.62,0,.3-.61.83-.61,1.4-.59q1.53,0,3.06,0a4.82,4.82,0,0,1,2.06.29,1,1,0,0,0-.94-.56c-1.82,0-3.65-.05-5.48.07-.85.05-1.72-.08-2.59-.07C37.3,4.07,37,4,36.82,4.34Z"/><path class="cls-2" d="M44.68,12.43a4.6,4.6,0,0,0-.54-1.34.79.79,0,0,0-1-.39c-.41.08-.52.4-.52.78,0,.56,0,1.12,0,1.68.07.73-.25,1-.92.89-.46-.05-1,.14-1.36-.09s0-.85-.32-1.22c-.43,1.19-.16,1.6,1,1.59,2.06,0,1.83.3,1.84-1.88,0-.32,0-.63,0-.95a.48.48,0,0,1,.33-.51.54.54,0,0,1,.62.25C44.18,11.62,44.24,12.15,44.68,12.43Z"/><path class="cls-2" d="M22.58,16.22c0,.51,0,1,0,1.53,0,.3.12.54.46.53a.49.49,0,0,0,.52-.57,5.65,5.65,0,0,1,0-1.88.43.43,0,0,0-.49-.5C22.52,15.38,22.58,15.85,22.58,16.22Z"/><path class="cls-2" d="M51.94,13.17c-.44,1.33-1.56.74-2.43.89-.58.11-.62-.15-.47-.6a.67.67,0,0,1-.87,0c0,.26.17.58-.28.57a9.06,9.06,0,0,1-2.6-.14c.05.4.34.43.64.43,1.74,0,3.47,0,5.21,0C51.77,14.32,52,14,51.94,13.17Z"/><path class="cls-2" d="M57.78,15.51h-.44c-.18,0-.43,0-.51.18s.16.34.36.44c.44.22.21.64.28,1s-.18.91.29.92.27-.57.3-.89-.11-1,.53-1.12a.23.23,0,0,0,.12-.31.27.27,0,0,0-.28-.18h-.65Z"/><path class="cls-2" d="M36.1,14.05H34.5c-.79,0-.89-.13-.88-1s0-1.65,0-2.48c0-.41-.12-.72-.56-.82a5.67,5.67,0,0,1,.28,2.71c0,1.84,0,1.85,1.87,1.83C35.52,14.32,35.9,14.47,36.1,14.05Z"/><path class="cls-2" d="M62.44,16.81c-.09-.4.17-1.11-.31-1.12s-.24.69-.3,1.08a5.06,5.06,0,0,0,0,.87c0,.16,0,.39.19.41s.34-.17.37-.37A8.3,8.3,0,0,0,62.44,16.81Z"/><path class="cls-2" d="M36.81,9.49a1.4,1.4,0,0,0-.71,1.34v3.23c.29-.12.27-.38.27-.62,0-.49,0-1,0-1.47A4.32,4.32,0,0,1,36.81,9.49Z"/><path class="cls-2" d="M30.28,4.92c0-.41.3-.43.61-.43h2.16c-.06-.15-.16-.27-.32-.26a11.59,11.59,0,0,0-2.28,0c-.19,0-.48-.06-.53.24S30.1,4.8,30.28,4.92Z"/><path class="cls-2" d="M55.15,12.58c-.29-.43-.74-.27-1.13-.29s-.86,0-1.29,0a.68.68,0,0,0-.78.59C53,12.31,54.08,12.66,55.15,12.58Z"/><path class="cls-2" d="M58.6,14.05h-3a.51.51,0,0,0,.53.29h2C58.37,14.33,58.55,14.3,58.6,14.05Z"/><path class="cls-2" d="M47.88,5.66a6.53,6.53,0,0,1,.29,2.67A2,2,0,0,0,47.88,5.66Z"/><path class="cls-2" d="M52.25,4.35h2.61A3,3,0,0,0,52.25,4.35Z"/><path class="cls-2" d="M49.34,12.43A5.69,5.69,0,0,0,50.22,10,5.48,5.48,0,0,0,49.34,12.43Z"/><path class="cls-2" d="M40.05,9.77a5.29,5.29,0,0,0,0-2.47A4.16,4.16,0,0,0,40.05,9.77Z"/><path class="cls-2" d="M34.49,7.29c0,.34,0,.76.44.77s.39-.39.46-.69.18-.54.27-.82a.59.59,0,0,0-.42.53C35.13,7.69,34.86,7.64,34.49,7.29Z"/><path class="cls-2" d="M33,9.64a3.41,3.41,0,0,0-1.16-1.91A3.9,3.9,0,0,0,33,9.64Z"/><path class="cls-2" d="M50.52,8.9c.62-.56.61-1.41,1-2.08C50.72,7.29,50.81,8.19,50.52,8.9Z"/><path class="cls-2" d="M51.52,6.4a4.94,4.94,0,0,0,.72-2A3.27,3.27,0,0,0,51.52,6.4Z"/><path class="cls-2" d="M57.92,12.27a1.75,1.75,0,0,0,.68,1.49A2.19,2.19,0,0,0,57.92,12.27Z"/><path class="cls-2" d="M55.73,6.39c.28.6.26,1.32.83,1.77A3,3,0,0,0,55.73,6.39Z"/><path class="cls-2" d="M47.56,9.78c-.79.23-1,.55-.74,1C46.92,10.36,47.37,10.17,47.56,9.78Z"/><path class="cls-2" d="M31,6.11a1,1,0,0,0-.58-1v.59h0C30.7,5.69,30.78,6,31,6.11Z"/><path class="cls-2" d="M55.59,14c0-.42,0-.88-.41-1.14C55.36,13.24,55.1,13.77,55.59,14Z"/><path class="cls-2" d="M33.62,5.52c0,.4,0,.82.55.88A1.23,1.23,0,0,0,33.62,5.52Z"/><path class="cls-2" d="M47.3,12a1,1,0,0,0,.55.75C47.8,12.37,47.68,12.08,47.3,12Z"/><path class="cls-2" d="M57.16,10c-.19.35,0,.56.28.72A.79.79,0,0,0,57.16,10Z"/><path class="cls-2" d="M48.14,8.9a1,1,0,0,0-.56.73C48,9.55,48.09,9.25,48.14,8.9Z"/><path class="cls-2" d="M35.68,6.4c.34-.13.33-.46.42-.73C35.74,5.79,35.68,6.08,35.68,6.4Z"/><path class="cls-2" d="M40.05,12a.62.62,0,0,0,0-.71A.5.5,0,0,0,40.05,12Z"/><path class="cls-2" d="M55.3,5.06c.07.29.07.61.4.75C55.65,5.52,55.62,5.21,55.3,5.06Z"/><path class="cls-2" d="M56.6,8.75c.08.28.08.59.39.74C57,9.19,56.94,8.88,56.6,8.75Z"/><path class="cls-2" d="M40.05,6.09a.43.43,0,0,0,0-.56A.35.35,0,0,0,40.05,6.09Z"/><path class="cls-2" d="M47,11.25a.49.49,0,0,0,.28.44C47.48,11.36,47.2,11.33,47,11.25Z"/><path class="cls-2" d="M31.87,7.59c0-.21,0-.39-.28-.45A.41.41,0,0,0,31.87,7.59Z"/><path class="cls-2" d="M34.2,6.7c0,.2,0,.38.27.44C34.49,6.92,34.43,6.76,34.2,6.7Z"/><path class="cls-2" d="M33.05,4.48c0,.22.05.39.28.45C33.32,4.73,33.28,4.55,33.05,4.48Z"/><path class="cls-2" d="M37.09,9.05a.34.34,0,0,0-.26.31A.33.33,0,0,0,37.09,9.05Z"/><path class="cls-2" d="M33.34,5.06a.33.33,0,0,0,.27.31A.36.36,0,0,0,33.34,5.06Z"/><path class="cls-2" d="M45.26,13.74a.34.34,0,0,0-.25-.28A.27.27,0,0,0,45.26,13.74Z"/><path class="cls-2" d="M36.4,4.78a.33.33,0,0,0,.28-.29A.33.33,0,0,0,36.4,4.78Z"/><path class="cls-2" d="M40.05,7a.18.18,0,0,0,0-.27Q39.87,6.85,40.05,7Z"/><path class="cls-2" d="M57.47,11.12a.34.34,0,0,0,.25.28A.27.27,0,0,0,57.47,11.12Z"/><path class="cls-2" d="M45,13a.34.34,0,0,0-.25-.29A.28.28,0,0,0,45,13Z"/></g></svg>