<svg xmlns="http://www.w3.org/2000/svg" viewBox="0 0 55.15 26.93"><defs><style>.cls-1{fill:#b79169;}.cls-2{fill:#b58f68;}</style></defs><g id="partner_logos" data-name="partner logos"><path class="cls-1" d="M27.26,1.19c-.1.31-.36.28-.6.29a11.25,11.25,0,0,0-7.84,3.8,11.18,11.18,0,0,0-2.23,3.41c-.22.52-.3.86.35,1.15s.8-.19.95-.55a10.09,10.09,0,0,1,3.85-4.56,10.49,10.49,0,0,1,14.1,2.21,10.33,10.33,0,0,1,1.47,2.5c.27.67.62.48,1.08.3s.41-.51.24-.91a11.93,11.93,0,0,0-3.56-4.75,11.8,11.8,0,0,0-5.91-2.59c-.24,0-.51,0-.59-.3Z"/><path class="cls-2" d="M19.53,12.1c-.38,0-.42-.21-.55-.35a2.55,2.55,0,0,0-3.75-.06c-.52.55-.8.52-1.29,0a2.34,2.34,0,0,0-3.68.35c-.24.38-.4.35-.66.07-1.34-1.47-2.61-1.56-4-.29-.09.07-.15.22-.29.14s-.11-.21-.12-.33c0-.71,0-1.42,0-2.13,0-.94-.79-.57-1.27-.6s-.74.24-.69.78a55,55,0,0,1,.06,6c0,.43,0,.78.48.79s1.24.28,1.39-.52c.12-.63.23-.63.68-.24,1.24,1,2.39.91,3.85-.41a.19.19,0,0,1,.17.2c.13.94.56,1.21,1.47,1,.38-.1.41-.37.42-.68,0-.76,0-1.52,0-2.28,0-.42.13-.77.58-.76s.45.42.45.76c0,.71,0,1.42,0,2.14,0,.45.08.87.66.83s1.2.27,1.21-.69c0-.52.22-.41.53-.18a2.85,2.85,0,0,0,3.61,0c.19-.16.41-.32.3-.61s-.35-.23-.56-.24a3,3,0,0,0-.94.09,1.44,1.44,0,0,1-1-.05c-.19-.1-.4-.23-.37-.49s.31-.27.52-.27h2.1c.63,0,.95.3.9,1a5.81,5.81,0,0,0,0,.59c0,.35,0,.75.47.76s.86.24,1-.37c.1-.39.32-.32.53-.12a1.65,1.65,0,0,0,1.68.35c.17,0,.34-.09.44.1a.45.45,0,0,1-.07.55,1,1,0,0,1-1.18.31,1.13,1.13,0,0,0-1.32.89c-.14.58.36.67.76.85a3.12,3.12,0,0,0,2,0,2,2,0,0,0,1.62-2c.05-1.76,0-3.52,0-5.28,0-.76-.59-.69-1.11-.71s-.78.24-.76.79c0,.76,0,1.52,0,2.28,0,.25,0,.56-.36.53s-.23-.33-.24-.54c0-.76-.06-1.52,0-2.27,0-.55-.22-.75-.72-.79-1-.07-1.15-.21-1-1.16.08-.64-.06-.91-.73-.91-1.14,0-1.24,0-1.23.9A10.55,10.55,0,0,0,19.53,12.1ZM7.45,14.71a1.08,1.08,0,0,1-1.13-1.13,1.13,1.13,0,0,1,1.16-1.06,1.28,1.28,0,0,1,1.11,1.05A1.11,1.11,0,0,1,7.45,14.71ZM17,12.52c.35.12.86.07.85.54s-.5.28-.79.33a2.09,2.09,0,0,1-.5,0c-.19,0-.41,0-.44-.28s.13-.31.29-.38Z"/><path class="cls-2" d="M27.84,15.76c0,.63,0,1.27,0,1.91s.28.63.7.59.89.16.92-.51a3.51,3.51,0,0,1,.11-1.43c.27-.53.88,0,1.33-.16s1.13-.29,1.51-.81c.11-.15.26-.34.48-.25s.14.33.11.51c-.09.54.22.71.67.73s.86,0,.88-.59c0-.23-.07-.54.24-.62s.33.24.47.39a2.69,2.69,0,0,0,1.74.82.83.83,0,0,0,.85-.43c.19-.26.45-.46.62,0a.55.55,0,0,0,.62.39c2.32,0,2.15.21,2.14-2,0-.29-.1-.58-.1-.87,0-.45.18-.87.68-.88s.69.34.7.78c0,.76,0,1.52,0,2.28s.41.72.91.72.78-.21.68-.76c0-.17-.11-.37.09-.46s.37.09.48.23a2.55,2.55,0,0,0,2.68.85,1.94,1.94,0,0,0,1.25-.82c.29-.36.22-.65-.3-.68a2.5,2.5,0,0,0-1.21.12c-.11.05-.24.13-.34.11-.4-.07-.93-.14-1-.61s.5-.3.8-.33.73,0,1.09,0c1.3,0,1.3,0,1.69,1.25a1.61,1.61,0,0,0,2.29.77c.35-.24.32-.57.31-.92a.49.49,0,0,0-.49-.53c-.58-.06-.69-.46-.67-.94s-.16-1,.59-1.12c.43-.05.43-.4.43-.73s-.08-.58-.47-.6-.53-.25-.56-.62c0-.68-.56-.53-1-.54s-.63.27-.62.7,0,.79,0,1.18c0,.15,0,.31-.21.35s-.19-.11-.25-.21a2.59,2.59,0,0,0-4.27,0c-.37.51-.53.06-.69-.13A2.55,2.55,0,0,0,41,11.17a2,2,0,0,0-1.07.94c-.28.39-.48.45-.82,0a2.44,2.44,0,0,0-4-.11c-.11.12-.19.31-.4.22s-.19-.27-.19-.45c0-.73,0-1.47,0-2.2,0-.57-.32-.63-.76-.62s-.86,0-.86.61A9.39,9.39,0,0,0,33,11.63c0,.19.08.4-.15.51a.36.36,0,0,1-.45-.14,2.32,2.32,0,0,0-3-.69A2.82,2.82,0,0,0,27.85,14C27.8,14.58,27.84,15.17,27.84,15.76Zm3.78-2.12a1.11,1.11,0,0,1-1.09,1.19,1.41,1.41,0,0,1-1.19-1.19,1.39,1.39,0,0,1,1.19-1.11A1.07,1.07,0,0,1,31.62,13.64Zm4.36.09a1.09,1.09,0,0,1,1-1.2,1.13,1.13,0,0,1,1.18,1A1.25,1.25,0,0,1,37,14.79,1,1,0,0,1,36,13.73Zm10.69-.33c-.33-.12-.93.2-1-.33s.53-.55,1-.55.9.06.88.54S47,13.29,46.67,13.4Z"/><path class="cls-1" d="M28,25.74a13,13,0,0,0,7.54-3.08,12.81,12.81,0,0,0,3-4.08c.25-.5.35-.9-.29-1.19s-.75.09-1,.57a11,11,0,0,1-3.92,4.49,10.55,10.55,0,0,1-8.42,1.41,10.34,10.34,0,0,1-5.77-3.81,7.59,7.59,0,0,1-1.32-2.27c-.19-.51-.54-.57-1-.38s-.53.53-.33,1a11.79,11.79,0,0,0,6.33,6.33A14.45,14.45,0,0,0,28,25.74Z"/></g></svg>