<svg xmlns="http://www.w3.org/2000/svg" viewBox="0 0 64.26 26.93"><defs><style>.cls-1{fill:#b58f68;}.cls-2{fill:#b79169;}</style></defs><g id="partner_logos" data-name="partner logos"><path class="cls-1" d="M2.62,13.45v7.72c0,.91,0,1,.94,1q5,0,10,0c.9,0,.95-.05.95-.95,0-4.8,0-9.6,0-14.4a4.15,4.15,0,0,1,.09-1.17c.14-.55-.13-.79-.64-.8H3.74C2.62,4.8,2.62,4.8,2.62,6Zm1.88,0c0-2,0-4,0-6,0-.52.14-.76.7-.75,2.27,0,4.55,0,6.83,0,.55,0,.79.2.78.77,0,4,0,7.94,0,11.9,0,.9-.29,1.08-1.19,1a47,47,0,0,0-6.17-.06c-.88,0-.93.06-.93-.87C4.49,17.43,4.49,15.45,4.5,13.46Z"/><path class="cls-2" d="M31.5,17a3.5,3.5,0,0,0-1.12-2.21,2.36,2.36,0,0,0-3.88.76,4.11,4.11,0,0,0,0,3.74,2.46,2.46,0,0,0,4.54-.1c.18-.34.3-.71.48-1.14.36.35.34.82.53,1.19a3.23,3.23,0,0,0,4,1.29.8.8,0,0,0,.46-.71c0-.56,0-1.12,0-1.69,0-.34-.15-.55-.51-.56s-.68.12-.75.53a4.39,4.39,0,0,0,0,.81c0,.61-.32.76-.84.69A1.67,1.67,0,0,1,33,18.16a4.29,4.29,0,0,1,0-1.6,1.7,1.7,0,0,1,2.22-1.16c.42.16.8.16,1-.3s-.22-.73-.61-.83a2.89,2.89,0,0,0-3.73,2.08C31.73,16.57,31.8,16.84,31.5,17ZM30.22,17c0,.54-.07,1-.14,1.37a1.53,1.53,0,0,1-1.28,1.4A1.16,1.16,0,0,1,27.58,19a3.37,3.37,0,0,1,0-3c.47-.9,1.4-1.13,2-.5A2.36,2.36,0,0,1,30.22,17Z"/><path class="cls-2" d="M37.23,17.51c0,.69,0,1.38,0,2.06,0,.44-.21,1.09.58,1.08s.52-.62.56-1c0-.2,0-.39,0-.59s0-.39.16-.44.33.16.41.34c.16.38.35.75.47,1.14a.77.77,0,0,0,.87.61,7.37,7.37,0,0,1,.94,0,.86.86,0,0,0,1-.74c.11-.73.49-.88,1.14-.9s.9.45,1.08,1c.09.27.07.57.45.66.69.17,1.07-.23.83-1s-.44-1.24-.61-1.87A26.07,26.07,0,0,1,44.32,15a.76.76,0,0,0-.71-.71c-.45,0-.6.26-.74.65-.58,1.57-1,3.22-1.67,4.76-.05.13,0,.32-.23.33s-.28-.15-.36-.3a9.79,9.79,0,0,0-.45-.92.88.88,0,0,1,.18-1.18,1.92,1.92,0,0,0-1-3.27l-.29-.07c-1.6-.24-1.82,0-1.82,1.59C37.24,16.39,37.23,17,37.23,17.51Zm2.46-1.21a1.07,1.07,0,0,1,0,.18.9.9,0,0,1-.92.86c-.55,0-.33-.53-.38-.85s0-.38,0-.58c-.07-.58.2-.8.75-.6A.85.85,0,0,1,39.69,16.3Zm3.67,1.87c-.35,0-.52-.2-.44-.59s.19-.8.3-1.2a.22.22,0,0,1,.26-.19.3.3,0,0,1,.24.24,10,10,0,0,1,.29,1.2C44.08,18.07,43.78,18.16,43.36,18.17Z"/><path class="cls-2" d="M22.85,12.16c-.43-.14-.32-.5-.3-.8.1-1.44.13-2.88.12-4.32,0-.5-.14-1-.66-1s-.62.51-.62,1c0,.69,0,1.37,0,2.06,0,.17,0,.37-.17.44s-.35-.1-.45-.26c-.48-.77-.93-1.55-1.44-2.29-.26-.37-.52-1-1.08-.77s-.44.83-.43,1.36c0,1.13,0,2.27,0,3.41,0,.29,0,.58,0,.88s.15.65.54.65.59-.3.58-.69a19.85,19.85,0,0,0-.06-2.78c0-.17-.12-.38.06-.47s.32.13.42.29c.6,1,1.17,2,1.8,2.93.31.47.62,1,1.38.7.28-.13.66.5.93-.08Z"/><path class="cls-2" d="M32.71,9.47a24.78,24.78,0,0,1,.08-2.68c.08-.51-.32-.63-.69-.64-1.47,0-3,0-4.42,0a.76.76,0,0,0-.55.12.49.49,0,0,0,.15.86,2.06,2.06,0,0,0,.64.15c.49,0,.6.27.6.71,0,1.25,0,2.5,0,3.75,0,.49,0,1,.68,1s.61-.51.61-1c0-1.25,0-2.5,0-3.75,0-.51.18-.77.68-.68.35,0,.79-.31,1,0s.09.7.09,1.06c0,1.18,0,2.36,0,3.53,0,.45.13.82.62.82s.53-.41.53-.8Z"/><path class="cls-2" d="M54.81,17.55c0-.84,0-1.67,0-2.5,0-.51-.21-.72-.7-.69s-.74.21-.62.74c0,.1,0,.2,0,.29.06,1.27-.38,1.62-1.62,1.3a.52.52,0,0,1-.42-.59c0-.37,0-.73,0-1.1s-.16-.66-.6-.64a.62.62,0,0,0-.67.69c0,1.61,0,3.22,0,4.83,0,.44,0,.9.61.89s.71-.41.69-.92,0-.93,0-1.4.24-.75.75-.73,1.21-.18,1.24.69a12.84,12.84,0,0,0,0,1.75c.06.39.15.66.6.64a.63.63,0,0,0,.69-.68c0-.86,0-1.72,0-2.57Z"/><path class="cls-2" d="M40.22,8.72l2.32,3.45c.19.3.36.56.81.45s.41-.47.41-.81c0-1.59,0-3.18,0-4.78,0-.36,0-.82-.49-.81s-.51.42-.51.82V9.46c0,.18.07.45-.17.51s-.3-.21-.4-.37c-.63-.93-1.25-1.85-1.85-2.79-.25-.4-.55-.64-1-.5s-.33.54-.34.86c0,1.55,0,3.09,0,4.63,0,.35,0,.74.47.76s.53-.39.53-.77v-3Z"/><path class="cls-2" d="M38.53,9.54c0-2.14-1.21-3.46-2.91-3.43a2.15,2.15,0,0,0-1.36.62,3.8,3.8,0,0,0,.22,5.52,2.5,2.5,0,0,0,3.87-1.47C38.45,10.3,38.49,9.81,38.53,9.54Zm-4.06,0a2.78,2.78,0,0,1,.22-1.47,1.25,1.25,0,0,1,1.11-.92A1.15,1.15,0,0,1,37,7.79a3.25,3.25,0,0,1,0,3,1.26,1.26,0,0,1-1.16.87,1.32,1.32,0,0,1-1.16-.85A2.43,2.43,0,0,1,34.47,9.53Z"/><path class="cls-2" d="M21.94,19c0-.22,0-.44,0-.66,0-.57-.27-.74-.77-.69a.61.61,0,0,0-.61.8c.07.43.34,1-.28,1.2A1.22,1.22,0,0,1,18.84,19a2.72,2.72,0,0,1-.2-2.85,1.5,1.5,0,0,1,1.79-.91,4.72,4.72,0,0,0,.64.1.51.51,0,0,0,.53-.42c0-.26-.13-.4-.32-.52a2.48,2.48,0,0,0-2.74.15,3.69,3.69,0,0,0-1.47,3.66,3.37,3.37,0,0,0,3.07,2.56C21.32,20.86,21.94,20.21,21.94,19Z"/><path class="cls-2" d="M48.79,12.19c-.24-1.25-.74-2.42-1.07-3.65-.15-.54-.33-1.07-.49-1.61a.81.81,0,0,0-.78-.65c-.37,0-.51.25-.65.57-.65,1.53-1,3.15-1.63,4.71-.13.34-.32.87.11,1s.67-.35.82-.73.18-.94.89-.92c1,0,1.1,0,1.42,1.05a.88.88,0,0,0,1,.72C48.68,12.69,48.85,12.54,48.79,12.19ZM46.24,8.3c.43.35.34.81.5,1.16s0,.48-.33.48-.57.07-.54-.28A9.31,9.31,0,0,1,46.24,8.3Z"/><path class="cls-2" d="M24.22,20.64c.44,0,.87,0,1.31,0a.46.46,0,0,0,.46-.54c0-.31-.22-.42-.49-.43h-.73c-.87,0-.91-.08-.94-1,0-.61.19-.87.79-.81a2.26,2.26,0,0,0,.58,0c.3-.05.38-.28.38-.55s-.08-.5-.38-.54a3.45,3.45,0,0,0-.72,0c-.4,0-.64-.12-.64-.58s0-.85.6-.9c.24,0,.48,0,.72,0s.5-.08.53-.39a.48.48,0,0,0-.44-.57,19.81,19.81,0,0,0-2.18,0c-.37,0-.51.33-.51.69,0,1.71,0,3.42,0,5.13a.51.51,0,0,0,.57.59h1.09Z"/><path class="cls-2" d="M46.11,17.54c0,.81,0,1.62,0,2.42,0,.44.13.7.62.71s.69-.24.67-.72c0-.2,0-.4,0-.59-.06-.65.07-1,.87-1.08a2.11,2.11,0,0,0,1.6-2.35A1.67,1.67,0,0,0,48,14.36c-2.23,0-1.9-.26-1.93,1.94Zm1.16-1.15c0-1,.09-1.15.59-1.15a1,1,0,0,1,.93,1c0,.53-.57,1.21-1,1.16C47,17.34,47.36,16.73,47.27,16.39Z"/><path class="cls-2" d="M58.59,17.53c-.13-1.33.79-2.59,2.34-2.06.29.1.6.06.69-.32s-.12-.58-.44-.73c-1.55-.72-3.59.58-3.87,2.44a3.19,3.19,0,0,0,1.81,3.75,2.87,2.87,0,0,0,2.12.09.52.52,0,0,0,.38-.69.49.49,0,0,0-.7-.33A1.84,1.84,0,0,1,58.59,17.53Z"/><path class="cls-1" d="M22.85,12.16l.56.28a1.3,1.3,0,0,0,.55-.76c0-.9.19-1,1.32-1,.85,0,1.06.28,1.06,1.31,0,.11,0,.21,0,.31a.36.36,0,0,1,.26.26h.73a1.35,1.35,0,0,0,0-1,12.91,12.91,0,0,1-.75-2.65.35.35,0,0,1-.26-.3c0-.25,0-.49,0-.74A.55.55,0,0,1,26,7.43c.08-.39-.21-.68-.3-1a1.89,1.89,0,0,0-1.11.29l0,.45c-.06.45,0,.95-.54,1.17,0,.1,0,.21,0,.31.18.36,0,.57-.29.72a8.83,8.83,0,0,0-.62,2.19.33.33,0,0,1-.24.31Zm2.27-2.09c-.44,0-.62-.21-.51-.67a4.94,4.94,0,0,0,.29-1.13A.26.26,0,0,1,25.16,8c.18,0,.23.15.27.3.1.35.17.71.3,1.05C26,9.93,25.69,10.08,25.12,10.07Z"/><path class="cls-2" d="M50.77,12.71h1c.3,0,.52-.12.54-.46a.56.56,0,0,0-.48-.64,7.74,7.74,0,0,0-1.08,0c-.39,0-.53-.16-.51-.6.05-1.32,0-2.64.05-4,0-.47-.14-.75-.66-.75S49,6.51,49,7c.09,1.63,0,3.26.1,4.89.06.73.35.94,1,.87.21,0,.43,0,.65,0Z"/><path class="cls-2" d="M55.56,17.56v2.35c0,.41,0,.85.55.86s.6-.46.6-.89V15.12c0-.4,0-.75-.55-.76s-.61.36-.6.79Z"/><path class="cls-2" d="M26.34,12c0-1-.21-1.3-1.06-1.31-1.13,0-1.29.11-1.32,1a1.3,1.3,0,0,1,1.1-.76C25.93,10.83,26.06,11.46,26.34,12Z"/><path class="cls-2" d="M24.62,6.7a1.89,1.89,0,0,1,1.11-.29C25.2,6,24.91,6,24.62,6.7Z"/><path class="cls-2" d="M24,8.32c.54-.22.48-.72.54-1.17C24.15,7.42,24.24,7.94,24,8.32Z"/><path class="cls-2" d="M27.33,11.56a1.35,1.35,0,0,1,0,1C28.05,12.22,27.7,11.89,27.33,11.56Z"/><path class="cls-2" d="M23.73,9.35c.32-.15.47-.36.29-.72A1.13,1.13,0,0,0,23.73,9.35Z"/><path class="cls-2" d="M26,7.43a.55.55,0,0,0,.27.44C26.5,7.54,26.22,7.52,26,7.43Z"/><path class="cls-2" d="M26.61,12.55a.36.36,0,0,0-.26-.26A.25.25,0,0,0,26.61,12.55Z"/><path class="cls-2" d="M22.87,11.85a.33.33,0,0,0,.24-.31A.31.31,0,0,0,22.87,11.85Z"/><path class="cls-2" d="M26.32,8.61a.35.35,0,0,0,.26.3A.31.31,0,0,0,26.32,8.61Z"/></g></svg>