<svg id="Ebene_3" data-name="Ebene 3" xmlns="http://www.w3.org/2000/svg" viewBox="0 0 75.23 11.49"><defs><style>.cls-1{fill:#fff;}.cls-2{fill:#ad764a;}</style></defs><path class="cls-1" d="M6.23,5.06h2.1V8.54a5.67,5.67,0,0,1-1.66.79A6.66,6.66,0,0,1,4.8,9.6a5,5,0,0,1-2.37-.55A4.16,4.16,0,0,1,.77,7.49a4.25,4.25,0,0,1-.6-2.25A4.29,4.29,0,0,1,.77,3,4.17,4.17,0,0,1,2.44,1.43,5,5,0,0,1,4.85.87,5.44,5.44,0,0,1,7,1.26,4.1,4.1,0,0,1,8.52,2.4L7,3.77a2.68,2.68,0,0,0-2-.93,2.35,2.35,0,0,0-1.74.65,2.36,2.36,0,0,0-.66,1.75,2.56,2.56,0,0,0,.3,1.24,2.15,2.15,0,0,0,.84.85A2.51,2.51,0,0,0,5,7.64a3.1,3.1,0,0,0,1.28-.28Z"/><path class="cls-1" d="M11,9A4.33,4.33,0,0,1,9.37,7.48a4.24,4.24,0,0,1-.6-2.24A4.28,4.28,0,0,1,9.37,3,4.33,4.33,0,0,1,11,1.43a5.12,5.12,0,0,1,2.4-.56,5.11,5.11,0,0,1,2.39.56A4.33,4.33,0,0,1,17.5,3a4.28,4.28,0,0,1,.6,2.25,4.24,4.24,0,0,1-.6,2.24A4.33,4.33,0,0,1,15.83,9a5,5,0,0,1-2.39.56A5,5,0,0,1,11,9Zm3.55-1.7a2.21,2.21,0,0,0,.81-.85,2.54,2.54,0,0,0,.3-1.25A2.58,2.58,0,0,0,15.4,4a2.18,2.18,0,0,0-.81-.84,2.37,2.37,0,0,0-2.31,0,2.18,2.18,0,0,0-.81.84,2.58,2.58,0,0,0-.3,1.26,2.54,2.54,0,0,0,.3,1.25,2.21,2.21,0,0,0,.81.85,2.37,2.37,0,0,0,2.31,0Z"/><path class="cls-1" d="M20.44,2.92H17.86V1h7.52V2.92H22.82V9.44H20.44Z"/><path class="cls-1" d="M27.42,9a4.21,4.21,0,0,1-2.28-3.8,4.22,4.22,0,0,1,2.28-3.81,5.4,5.4,0,0,1,4.79,0A4.3,4.3,0,0,1,33.87,3a4.2,4.2,0,0,1,.61,2.25,4.16,4.16,0,0,1-.61,2.24A4.3,4.3,0,0,1,32.21,9a5.4,5.4,0,0,1-4.79,0ZM31,7.34a2.16,2.16,0,0,0,.82-.85,2.54,2.54,0,0,0,.3-1.25A2.58,2.58,0,0,0,31.78,4,2.14,2.14,0,0,0,31,3.14a2.22,2.22,0,0,0-1.15-.3,2.24,2.24,0,0,0-1.15.3,2.21,2.21,0,0,0-.82.84,2.58,2.58,0,0,0-.3,1.26,2.54,2.54,0,0,0,.3,1.25A2.29,2.29,0,0,0,31,7.34Z"/><path class="cls-2" d="M47.21,5.06h2.1V8.54a5.79,5.79,0,0,1-1.66.79,6.71,6.71,0,0,1-1.87.27,5.06,5.06,0,0,1-2.38-.55,4.2,4.2,0,0,1-1.65-1.56,4.25,4.25,0,0,1-.6-2.25A4.29,4.29,0,0,1,41.75,3a4.14,4.14,0,0,1,1.66-1.55A5.08,5.08,0,0,1,45.83.87a5.47,5.47,0,0,1,2.11.39A4.26,4.26,0,0,1,49.5,2.4L48,3.77a2.68,2.68,0,0,0-2-.93,2.35,2.35,0,0,0-1.74.65,2.36,2.36,0,0,0-.66,1.75,2.56,2.56,0,0,0,.3,1.24,2.15,2.15,0,0,0,.84.85,2.5,2.5,0,0,0,1.23.31,3.11,3.11,0,0,0,1.29-.28Z"/><path class="cls-2" d="M54.66,6.42v3H52.29v-3L49.08,1h2.51l2,3.33,2-3.33h2.3Z"/><path class="cls-2" d="M63.81,1.41a3.09,3.09,0,0,1,1.3,1.08,3,3,0,0,1,.45,1.65,3,3,0,0,1-.45,1.65,3,3,0,0,1-1.3,1.07,4.82,4.82,0,0,1-2,.38H60.37v2.2H58V1h3.84A4.83,4.83,0,0,1,63.81,1.41Zm-1,3.64a1.11,1.11,0,0,0,.37-.91,1.14,1.14,0,0,0-.37-.91,1.68,1.68,0,0,0-1.1-.32H60.37V5.37h1.32A1.68,1.68,0,0,0,62.79,5.05Z"/><path class="cls-2" d="M68.1,2.92H65.52V1h7.53V2.92H70.48V9.44H68.1Z"/><path class="cls-2" d="M72.5,9.16a1.32,1.32,0,0,1-.4-1,1.3,1.3,0,0,1,.39-1,1.5,1.5,0,0,1,2,0,1.33,1.33,0,0,1,.38,1,1.31,1.31,0,0,1-.39,1,1.44,1.44,0,0,1-2,0Z"/><path class="cls-2" d="M36.51,7.6V6.06h3.73V4.29H36.51V2.87h4.23V1H34.15V2.1a4.13,4.13,0,0,1,.72.89,4.2,4.2,0,0,1,.61,2.25,4.22,4.22,0,0,1-1.33,3.13V9.44H40.9V7.6Z"/></svg>