<svg id="Layer_1" enable-background="new 0 0 497 497" height="512" viewBox="0 0 497 497" width="512" xmlns="http://www.w3.org/2000/svg"><g><g><ellipse cx="311.655" cy="207.218" fill="#fee069" rx="110.142" ry="110.142" transform="matrix(.707 -.707 .707 .707 -55.243 281.066)"/></g><g><path d="m311.655 97.076c-5.089 0-10.095.353-15 1.021 53.733 7.318 95.142 53.38 95.142 109.121s-41.409 101.803-95.142 109.121c4.905.668 9.911 1.021 15 1.021 60.83 0 110.142-49.312 110.142-110.142s-49.312-110.142-110.142-110.142z" fill="#f0d062"/></g><g><path d="m355.994 212.363-101.188 151.233h227.177l-107.781-152.142c-4.367-6.165-13.557-6.042-17.758.237l-101.638 151.905h227.177l-107.314-151.482c-4.592-6.483-14.256-6.354-18.675.249z" fill="#e4b052"/></g><g><path d="m360.746 205.26 91.237 158.336h30l-112.254-158.456c-2.209-3.118-6.857-3.056-8.983.12z" fill="#dd9e32"/></g><g><path d="m258.236 358.469c-1.465 2.189.104 5.126 2.738 5.126h134.94c1.998 0 3.49-1.838 3.079-3.793l-32.306-153.809c-.573-2.726-4.145-3.418-5.694-1.103l-106.187 158.706" fill="#eac881"/></g><g><path d="m187.674 125.126-159.558 238.47h332.506l-168.977-238.523c-.976-1.379-3.032-1.352-3.971.053l-159.558 238.47h332.506l-168.977-238.523c-.976-1.379-3.032-1.352-3.971.053z" fill="#e4b052"/></g><g><path d="m187.674 125.126 142.948 238.47h30l-168.977-238.523c-.976-1.379-3.032-1.352-3.971.053z" fill="#dd9e32"/></g><g><path d="m28.116 363.596h212.199c.002 0 .004-.002.003-.004l-49.985-237.982c-.266-1.265-1.923-1.586-2.641-.512z" fill="#eac881"/></g><path d="m232.819 256.371c4.143 0 7.5 3.358 7.5 7.5s-3.357 7.5-7.5 7.5h-19.379c-4.143 0-7.5-3.358-7.5-7.5s3.357-7.5 7.5-7.5zm-4.892 58.787c-4.143 0-7.5 3.358-7.5 7.5s3.357 7.5 7.5 7.5h19.379c4.143 0 7.5-3.358 7.5-7.5s-3.357-7.5-7.5-7.5z" fill="#d49730"/><path d="m92.28 286.371c4.143 0 7.5-3.358 7.5-7.5s-3.357-7.5-7.5-7.5h-2.457l-10.036 15z" fill="#dd9e32"/><path d="m145.232 300.158c-4.143 0-7.5 3.358-7.5 7.5s3.357 7.5 7.5 7.5h19.379c4.143 0 7.5-3.358 7.5-7.5s-3.357-7.5-7.5-7.5z" fill="#dd9e32"/><path d="m382.412 307.658c-4.143 0-7.5 3.358-7.5 7.5s3.357 7.5 7.5 7.5h19.379c4.143 0 7.5-3.358 7.5-7.5s-3.357-7.5-7.5-7.5z" fill="#d49730"/><path d="m143.908 216.129c4.143 0 7.5-3.358 7.5-7.5s-3.357-7.5-7.5-7.5h-7.087l-10.036 15z" fill="#dd9e32"/><path d="m77.655 345.11h19.379c4.143 0 7.5-3.358 7.5-7.5s-3.357-7.5-7.5-7.5h-19.379c-4.143 0-7.5 3.358-7.5 7.5s3.358 7.5 7.5 7.5z" fill="#dd9e32"/><g><path d="m320.847 266.668h19.379c4.143 0 7.5-3.358 7.5-7.5s-3.357-7.5-7.5-7.5h-10.53l-9.974 14.907c.368.056.741.093 1.125.093z" fill="#dd9e32"/></g><path d="m388.041 307.658h-5.629c-4.143 0-7.5 3.358-7.5 7.5s3.357 7.5 7.5 7.5h8.78z" fill="#dd9e32"/><g fill="#dd9e32"><path d="m213.44 271.371h7.509l-3.151-15h-4.358c-4.143 0-7.5 3.358-7.5 7.5s3.358 7.5 7.5 7.5z"/><path d="m230.146 315.158h-2.219c-4.143 0-7.5 3.358-7.5 7.5s3.357 7.5 7.5 7.5h5.369z"/></g><g><g><path d="m489.347 399.924h-481.694c-4.226 0-7.653-3.426-7.653-7.653v-17.08c0-8.613 6.983-15.596 15.596-15.596h465.808c8.613 0 15.596 6.983 15.596 15.596v17.08c0 4.227-3.426 7.653-7.653 7.653z" fill="#c48958"/></g><g><path d="m481.404 359.596h-30c8.613 0 15.596 6.983 15.596 15.596v24.732h22.347c4.226 0 7.653-3.426 7.653-7.653v-17.08c0-8.613-6.983-15.595-15.596-15.595z" fill="#b27a49"/></g></g></g></svg>